<?xml version="1.0" encoding="utf-8"?>
<!-- Generator: Adobe Illustrator 25.2.0, SVG Export Plug-In . SVG Version: 6.00 Build 0)  -->
<svg version="1.1" id="Layer_1" xmlns="http://www.w3.org/2000/svg" xmlns:xlink="http://www.w3.org/1999/xlink" x="0px" y="0px"
	 viewBox="0 0 512 451" style="enable-background:new 0 0 512 451;" xml:space="preserve">
<style type="text/css">
	.st0{fill:#f84e77;}
</style>
<g>
	<path class="st0" d="M41.9,44.6c10,0,10-15,0-15C31.9,29.6,31.9,44.6,41.9,44.6z"/>
	<path class="st0" d="M68.8,44.6c10,0,10-15,0-15C58.8,29.6,58.7,44.6,68.8,44.6z"/>
	<path class="st0" d="M95.6,44.6c10,0,10-15,0-15C85.6,29.6,85.6,44.6,95.6,44.6z"/>
	<g>
		<path class="st0" d="M504.5,1h-46.2c-9.7,0-9.7,15,0,15H497v42.2H15V16h403.3c9.7,0,9.7-15,0-15H7.5C3.4,1,0,4.4,0,8.5v435
			c0,4.1,3.4,7.5,7.5,7.5h497c4.1,0,7.5-3.4,7.5-7.5V8.5C512,4.4,508.6,1,504.5,1z M15,436V73.2h482V436H15z"/>
		<path class="st0" d="M348,160.2h-36c0.5-30.8-25.2-56.8-56-56.8c-30.8,0-56.4,26.1-56,56.8h-35c-4.1,0-7.5,3.4-7.5,7.5V199
			c0,9.7,15,9.7,15,0v-23.8h29.8c16.8,53.2,90.7,53.2,107.4,0h30.8v148h-168v-87.8c0-9.7-15-9.7-15,0v95.3c0,4.1,3.4,7.5,7.5,7.5
			h183c4.1,0,7.5-3.4,7.5-7.5v-163C355.5,163.5,352.1,160.2,348,160.2L348,160.2z M256,118.3c30-0.3,50.3,32.4,36.8,59.1
			c-3.6-5.3-8.3-9.9-13.9-13.3c5.7-15.3-6.5-32.6-22.9-32.2c-16.4-0.3-28.5,17-22.9,32.2c-5.6,3.4-10.3,7.9-13.9,13.3
			C205.7,150.8,226.1,118,256,118.3L256,118.3z M246.8,156.1c0-5.1,4.1-9.2,9.2-9.2s9.2,4.1,9.2,9.2
			C265.2,168.1,246.8,168.1,246.8,156.1L246.8,156.1z M229.2,190.3c2.7-6,7.3-11.1,13.2-14.1c8.1,5.6,19.1,5.6,27.3,0
			c5.9,3.1,10.5,8.1,13.2,14.1C267.7,203.4,244.3,203.4,229.2,190.3L229.2,190.3z"/>
		<path class="st0" d="M283.3,359.1h-54.7c-4.1,0-7.5,3.4-7.5,7.5v29.2c0,4.1,3.4,7.5,7.5,7.5h54.7c4.1,0,7.5-3.4,7.5-7.5v-29.2
			C290.8,362.4,287.5,359.1,283.3,359.1z M275.8,388.3h-39.7v-14.2h39.7V388.3z"/>
		<path class="st0" d="M206.1,256.7h100.8c9.7,0,9.7-15,0-15H206.1C196.4,241.7,196.4,256.7,206.1,256.7L206.1,256.7z"/>
		<path class="st0" d="M206.1,292.2h100.8c9.7,0,9.7-15,0-15H206.1C196.4,277.2,196.4,292.2,206.1,292.2L206.1,292.2z"/>
	</g>
</g>
</svg>
