<?xml version="1.0" encoding="utf-8"?>
<!-- Generator: Adobe Illustrator 25.2.0, SVG Export Plug-In . SVG Version: 6.00 Build 0)  -->
<svg version="1.1" id="Layer_1" xmlns="http://www.w3.org/2000/svg" xmlns:xlink="http://www.w3.org/1999/xlink" x="0px" y="0px"
	 viewBox="0 0 375 376" style="enable-background:new 0 0 375 376;" xml:space="preserve">
<style type="text/css">
	.st0{fill:#f84e77;}
</style>
<g>
	<path class="st0" d="M45.3,205.5H28.7c-15.1,0-27.4,12.3-27.4,27.4v115.6c0,15.1,12.3,27.4,27.4,27.4h16.7
		c15.1,0,27.4-12.3,27.4-27.4V232.9C72.7,217.8,60.5,205.5,45.3,205.5z M58.8,348.6c0,7.4-6,13.4-13.4,13.4H28.7
		c-7.4,0-13.4-6-13.4-13.4V232.9c0-7.4,6-13.4,13.4-13.4h16.7c7.4,0,13.4,6,13.4,13.4V348.6z"/>
	<path class="st0" d="M146.1,234.7h-16.7c-15.1,0-27.4,12.3-27.4,27.4v86.4c0,15.1,12.3,27.4,27.4,27.4h16.7
		c15.1,0,27.4-12.3,27.4-27.4v-86.4C173.5,247,161.2,234.7,146.1,234.7L146.1,234.7z M159.5,348.6c0,7.4-6,13.4-13.4,13.4h-16.7
		c-7.4,0-13.4-6-13.4-13.4v-86.4c0-7.4,6-13.4,13.4-13.4h16.7c7.4,0,13.4,6,13.4,13.4L159.5,348.6z"/>
	<path class="st0" d="M246.8,180.6h-16.7c-15.1,0-27.4,12.3-27.4,27.4v140.5c0,15.1,12.3,27.4,27.4,27.4h16.7
		c15.1,0,27.4-12.3,27.4-27.4V208C274.2,192.9,262,180.6,246.8,180.6z M260.3,348.6c0,7.4-6,13.4-13.4,13.4h-16.7
		c-7.4,0-13.4-6-13.4-13.4V208c0-7.4,6-13.4,13.4-13.4h16.7c7.4,0,13.4,6,13.4,13.4V348.6z"/>
	<path class="st0" d="M347.6,107.4h-16.7c-15.1,0-27.4,12.3-27.4,27.4v213.7c0,15.1,12.3,27.4,27.4,27.4h16.7
		c15.1,0,27.4-12.3,27.4-27.4V134.9C375,119.7,362.7,107.4,347.6,107.4z M361,348.6c0,7.4-6,13.4-13.4,13.4h-16.7
		c-7.4,0-13.4-6-13.4-13.4V134.9c0-7.4,6-13.4,13.4-13.4h16.7c7.4,0,13.4,6,13.4,13.4V348.6z"/>
	<path class="st0" d="M37,153.7c9.3,0,17.9-4.8,22.7-12.7l51.3,15.2c0,0.2,0,0.4,0,0.6c-0.1,14.8,11.8,26.9,26.6,27
		c14.8,0.1,26.9-11.8,27-26.6c0-2.5-0.3-4.9-1-7.3l56-32.5c10.4,10.4,27.4,10.4,37.8,0c7.3-7.3,9.7-18.2,6.2-27.9L322,49.2
		c11.4,9.7,28.5,8.3,38.2-3.1c9.7-11.4,8.3-28.5-3.1-38.2s-28.5-8.3-38.2,3.1c-6.3,7.4-8.1,17.5-4.9,26.7L255.7,78
		c-11.3-9.5-28.2-8.1-37.7,3.2c-5.6,6.7-7.7,15.7-5.4,24.1l-56,32.5c-10.4-10.4-27.3-10.4-37.7,0.1c-1.5,1.5-2.8,3.1-3.9,4.9
		l-51.3-15.2c0-0.2,0-0.4,0-0.6c0-14.8-12-26.8-26.8-26.8s-26.8,12-26.8,26.8C10.2,141.7,22.2,153.7,37,153.7L37,153.7z M339.2,16
		c7,0,12.8,5.7,12.8,12.8c0,7-5.7,12.8-12.8,12.8c-4.2,0-8.1-2.1-10.5-5.5c-1.5-2.1-2.3-4.6-2.3-7.2C326.5,21.7,332.2,16,339.2,16z
		 M238.5,85.6c4.2,0,8.2,2.1,10.5,5.6c1.5,2.1,2.3,4.6,2.2,7.2c0,7-5.7,12.8-12.7,12.8c-4.6,0-8.8-2.5-11.1-6.5
		c-1.1-1.9-1.7-4.1-1.7-6.3C225.7,91.4,231.4,85.6,238.5,85.6L238.5,85.6z M137.8,144c4.6,0,8.8,2.5,11,6.4c1.1,1.9,1.7,4.1,1.7,6.3
		c-0.4,7.1-6.4,12.5-13.5,12.1c-6.5-0.4-11.7-5.6-12.1-12.1c0-1.2,0.2-2.4,0.5-3.6C127.1,147.7,132.1,144,137.8,144L137.8,144z
		 M37,114.2c7.1,0,12.8,5.7,12.8,12.8c0,7.1-5.7,12.8-12.8,12.8c-7.1,0-12.8-5.7-12.8-12.8c0,0,0,0,0,0
		C24.2,119.9,30,114.2,37,114.2z"/>
</g>
</svg>
