<?xml version="1.0" encoding="utf-8"?>
<!-- Generator: Adobe Illustrator 25.2.0, SVG Export Plug-In . SVG Version: 6.00 Build 0)  -->
<svg version="1.1" id="Layer_4" xmlns="http://www.w3.org/2000/svg" xmlns:xlink="http://www.w3.org/1999/xlink" x="0px" y="0px"
	 viewBox="0 0 512 512" style="enable-background:new 0 0 512 512;" xml:space="preserve">
<style type="text/css">
	.st0{fill:#f84e77;}
</style>
<path class="st0" d="M464,264h-72v-56h8c13.3,0,24-10.7,24-24c0-7.6-3.6-14.7-9.6-19.2l-176-132c-8.5-6.4-20.3-6.4-28.8,0l-176,132
	c-10.6,8-12.8,23-4.8,33.6c4.5,6,11.6,9.6,19.2,9.6h8v240c0,22.1,17.9,40,40,40h368c13.2,0,24-10.8,24-24V288
	C488,274.8,477.2,264,464,264z M472,288v40H168v-40c0-4.4,3.6-8,8-8h288C468.4,280,472,283.6,472,288z M48,192c-4.4,0-8-3.6-8-8
	c0-2.5,1.2-4.9,3.2-6.4l176-132c2.8-2.1,6.8-2.1,9.6,0l176,132c3.5,2.7,4.3,7.7,1.6,11.2c-1.5,2-3.9,3.2-6.4,3.2H48z M72,448V208
	h304v56H176c-13.2,0-24,10.8-24,24v176c0,2.7,0.5,5.4,1.4,8H96C82.7,472,72,461.2,72,448z M464,472H176c-4.4,0-8-3.6-8-8V344h304
	v120C472,468.4,468.4,472,464,472z"/>
<path class="st0" d="M256,400h-48c-4.4,0-8,3.6-8,8s3.6,8,8,8h48c4.4,0,8-3.6,8-8S260.4,400,256,400z"/>
<path class="st0" d="M256,432h-48c-4.4,0-8,3.6-8,8s3.6,8,8,8h48c4.4,0,8-3.6,8-8S260.4,432,256,432z"/>
<path class="st0" d="M432,432h-48c-4.4,0-8,3.6-8,8s3.6,8,8,8h48c4.4,0,8-3.6,8-8S436.4,432,432,432z"/>
</svg>
