<?xml version="1.0" encoding="utf-8"?>
<!-- Generator: Adobe Illustrator 25.2.0, SVG Export Plug-In . SVG Version: 6.00 Build 0)  -->
<svg version="1.1" id="Capa_1" xmlns="http://www.w3.org/2000/svg" xmlns:xlink="http://www.w3.org/1999/xlink" x="0px" y="0px"
	 viewBox="0 0 512 512" style="enable-background:new 0 0 512 512;" xml:space="preserve">
<style type="text/css">
	.st0{fill:#f84e77;}
</style>
<g>
	<g>
		<path class="st0" d="M390.4,154.8c-4,1.2-6.2,5.4-5,9.4c4,12.9,6,26.3,6,39.8c0,45-22.3,87-59.7,112.3
			c-21.4,14.4-34.9,37.8-37.1,63.6h-13v-75.6l34.1-33.1c3-2.9,3-7.6,0.2-10.6c-2.9-3-7.6-3-10.6-0.2l-5.4,5.3l-11-4.1
			c-1.7-0.6-3.6-0.6-5.2,0l-12.5,4.7l-12.5-4.7c-1.7-0.6-3.6-0.6-5.2,0l-12.5,4.7l-12.5-4.7c-1.7-0.6-3.6-0.6-5.2,0l-11,4.1
			l-5.4-5.3c-3-2.9-7.7-2.8-10.6,0.2c-2.9,3-2.8,7.7,0.2,10.6l34.1,33.1v75.6h-13c-2.2-25.7-16-49.2-37.7-64
			c-36.4-24.9-58.5-66-59.1-109.9c-0.5-36.6,13.6-71.2,39.8-97.4c26.2-26.2,60.8-40.4,97.4-39.9c47.2,0.6,89.8,25.2,114.2,65.7
			c2.1,3.5,6.7,4.7,10.3,2.6c3.5-2.1,4.7-6.7,2.6-10.3c-13-21.5-31.3-39.6-52.9-52.4c-22.3-13.1-47.9-20.2-73.9-20.6
			c-40.7-0.5-79.1,15.2-108.2,44.2c-29.1,29.1-44.8,67.5-44.2,108.2c0.7,48.8,25.2,94.5,65.6,122.1c17.6,12,28.9,31,31.1,51.7h-18.8
			c-8.7,0-15.8,7.1-15.8,15.8v16.1c0,8.7,7.1,15.8,15.8,15.8h3.5c0,0.3,0,0.6,0,0.8v16.1c0,8.7,7,15.8,15.7,15.8
			c0.2,6.6,1.6,12.9,4.1,19c1.6,3.8,6,5.6,9.8,4c3.8-1.6,5.6-6,4-9.8c-1.8-4.2-2.8-8.6-2.9-13.2h76.5c-0.9,20.3-17.7,36.6-38.2,36.6
			c-5.5,0-10.7-1.1-15.6-3.3c-3.8-1.7-8.2,0-9.9,3.8c-1.7,3.8,0,8.2,3.8,9.9c6.9,3.1,14.2,4.6,21.8,4.6c28.8,0,52.3-23,53.2-51.6
			c8.7,0,15.7-7.1,15.7-15.8v-16.1c0-0.3,0-0.6,0-0.8h3.5c8.7,0,15.8-7.1,15.8-15.8v-16.1c0-8.7-7.1-15.8-15.8-15.8h-18.8
			c2.1-20.8,13.2-39.6,30.4-51.2c41.5-28,66.3-74.6,66.3-124.7c0-15.1-2.2-30-6.6-44.2C398.5,155.8,394.3,153.6,390.4,154.8
			L390.4,154.8z M224,277.3l1.7-0.6l12.5,4.7c1.7,0.6,3.6,0.6,5.2,0l12.5-4.7l12.5,4.7c1.7,0.6,3.6,0.6,5.2,0l12.5-4.7l1.7,0.6
			l-19.1,18.5c-1.5,1.4-2.3,3.4-2.3,5.4v78.8h-21.3v-78.8c0-2-0.8-4-2.3-5.4L224,277.3z M310,444.6c0,0.5-0.4,0.8-0.8,0.8H202.9
			c-0.5,0-0.8-0.4-0.8-0.8v-16.1c0-0.5,0.4-0.8,0.8-0.8h106.2c0.5,0,0.8,0.4,0.8,0.8V444.6z M328.4,394.9c0.5,0,0.8,0.4,0.8,0.8
			v16.1c0,0.5-0.4,0.8-0.8,0.8H183.6c-0.5,0-0.8-0.4-0.8-0.8v-16.1c0-0.5,0.4-0.8,0.8-0.8H328.4z"/>
		<path class="st0" d="M256,31.2c4.1,0,7.5-3.4,7.5-7.5V7.5c0-4.1-3.4-7.5-7.5-7.5s-7.5,3.4-7.5,7.5v16.2
			C248.5,27.8,251.9,31.2,256,31.2L256,31.2z"/>
		<path class="st0" d="M154.5,52.9c1.4,2.4,3.9,3.7,6.5,3.7c1.3,0,2.6-0.3,3.7-1c3.6-2.1,4.8-6.6,2.7-10.2l-8.1-14
			c-2.1-3.6-6.6-4.8-10.2-2.7c-3.6,2.1-4.8,6.6-2.7,10.2L154.5,52.9z"/>
		<path class="st0" d="M95.1,112.3l-14-8.1c-3.6-2.1-8.2-0.8-10.2,2.7c-2.1,3.6-0.8,8.2,2.7,10.2l14,8.1c1.2,0.7,2.5,1,3.7,1
			c2.6,0,5.1-1.3,6.5-3.7C99.9,118.9,98.7,114.3,95.1,112.3z"/>
		<path class="st0" d="M438.4,310.5l-14-8.1c-3.6-2.1-8.2-0.8-10.2,2.7c-2.1,3.6-0.8,8.2,2.7,10.2l14,8.1c1.2,0.7,2.5,1,3.7,1
			c2.6,0,5.1-1.3,6.5-3.7C443.2,317.2,442,312.6,438.4,310.5z"/>
		<path class="st0" d="M73.4,213.8c0-4.1-3.4-7.5-7.5-7.5H49.7c-4.1,0-7.5,3.4-7.5,7.5s3.4,7.5,7.5,7.5h16.2
			C70,221.3,73.4,218,73.4,213.8z"/>
		<path class="st0" d="M462.3,206.3h-16.2c-4.1,0-7.5,3.4-7.5,7.5s3.4,7.5,7.5,7.5h16.2c4.1,0,7.5-3.4,7.5-7.5
			S466.5,206.3,462.3,206.3z"/>
		<path class="st0" d="M87.6,302.4l-14,8.1c-3.6,2.1-4.8,6.6-2.7,10.2c1.4,2.4,3.9,3.7,6.5,3.7c1.3,0,2.6-0.3,3.7-1l14-8.1
			c3.6-2.1,4.8-6.6,2.7-10.2C95.8,301.6,91.2,300.3,87.6,302.4z"/>
		<path class="st0" d="M420.7,126.2c1.3,0,2.6-0.3,3.7-1l14-8.1c3.6-2.1,4.8-6.6,2.7-10.2c-2.1-3.6-6.6-4.8-10.2-2.7l-14,8.1
			c-3.6,2.1-4.8,6.6-2.7,10.2C415.6,124.9,418.1,126.2,420.7,126.2z"/>
		<path class="st0" d="M347.3,55.6c1.2,0.7,2.5,1,3.7,1c2.6,0,5.1-1.3,6.5-3.7l8.1-14c2.1-3.6,0.8-8.2-2.7-10.2
			c-3.6-2.1-8.2-0.8-10.2,2.7l-8.1,14C342.5,49,343.7,53.6,347.3,55.6L347.3,55.6z"/>
	</g>
</g>
</svg>
