<svg width="1016" height="290" xmlns="http://www.w3.org/2000/svg" xmlns:xlink="http://www.w3.org/1999/xlink"><defs><path d="M286.53 207v-79.453h-25.577v-15.645h25.576v-5.888c0-6.153.923-11.587 2.769-16.304 1.846-4.717 4.512-8.672 7.998-11.865 3.486-3.194 7.69-5.625 12.612-7.295s10.46-2.505 16.612-2.505c4.043 0 7.895.308 11.557.923 3.662.615 7.485 1.333 11.47 2.153l-1.846 16.7c-2.285-.645-4.951-1.217-7.998-1.715-3.047-.498-6.474-.747-10.283-.747-7.559 0-13.081 1.787-16.567 5.362-3.487 3.574-5.23 8.672-5.23 15.293v5.888h35.332v15.645h-35.332V207h-21.094zm87.978-135h51.416v117.598h29.004V207h-80.42v-17.402h30.234V89.49h-30.234V72zm165.146 121.992c-3.222 4.688-7.133 8.335-11.733 10.943-4.6 2.607-9.741 3.91-15.425 3.91-4.922 0-9.419-.761-13.491-2.284-4.072-1.524-7.559-3.94-10.46-7.251-2.9-3.311-5.155-7.53-6.767-12.657-1.611-5.127-2.417-11.294-2.417-18.5v-56.25h21.006v56.425c0 4.57.337 8.35 1.01 11.338.675 2.988 1.715 5.361 3.121 7.12 1.406 1.757 3.164 3.002 5.273 3.735 2.11.732 4.63 1.098 7.56 1.098 5.624 0 10.165-1.098 13.622-3.296 3.457-2.197 6.065-5.17 7.822-8.92v-67.5h21.094V207h-18.984l-1.23-13.008zm91.319 14.766c-7.032 0-13.448-1.172-19.248-3.516-5.801-2.344-10.767-5.566-14.898-9.668-4.13-4.101-7.339-8.95-9.624-14.546-2.285-5.595-3.428-11.645-3.428-18.15v-3.603c0-7.558 1.216-14.355 3.648-20.39 2.432-6.035 5.683-11.192 9.756-15.469 4.072-4.277 8.818-7.559 14.238-9.844 5.42-2.285 11.118-3.427 17.095-3.427 6.914 0 13.008 1.157 18.281 3.471 5.273 2.315 9.683 5.567 13.228 9.756 3.544 4.19 6.225 9.155 8.042 14.898 1.816 5.742 2.724 12.04 2.724 18.896v8.877H604.87c.352 3.691 1.26 7.12 2.725 10.283 1.465 3.164 3.384 5.903 5.757 8.218 2.373 2.314 5.156 4.13 8.35 5.45 3.193 1.318 6.694 1.977 10.502 1.977 5.332 0 10.24-1.055 14.722-3.164 4.482-2.11 8.13-5.01 10.942-8.702l11.426 10.723c-1.523 2.285-3.486 4.497-5.889 6.636-2.402 2.139-5.215 4.043-8.437 5.713-3.223 1.67-6.841 3.017-10.855 4.043-4.013 1.025-8.393 1.538-13.14 1.538zm-2.55-81.65c-2.929 0-5.653.527-8.173 1.581-2.52 1.055-4.775 2.593-6.768 4.615-1.992 2.021-3.676 4.482-5.053 7.383-1.377 2.9-2.359 6.196-2.945 9.887h44.56v-1.582a30.353 30.353 0 00-1.625-8.13 21.498 21.498 0 00-4-6.987c-1.757-2.05-3.969-3.691-6.635-4.922-2.666-1.23-5.786-1.846-9.36-1.846zm85.255-15.206l1.318 13.184c3.457-4.746 7.632-8.423 12.525-11.03 4.892-2.608 10.327-3.911 16.303-3.911 4.864 0 9.302.703 13.316 2.109 4.013 1.406 7.47 3.603 10.37 6.592 2.901 2.988 5.157 6.855 6.768 11.601 1.612 4.746 2.417 10.46 2.417 17.139V207H755.69v-59.063c0-3.925-.454-7.207-1.362-9.843-.908-2.637-2.197-4.746-3.867-6.328-1.67-1.582-3.706-2.71-6.108-3.384-2.403-.674-5.127-1.01-8.174-1.01-4.63 0-8.657 1.024-12.085 3.075-3.428 2.051-6.197 4.834-8.306 8.35V207h-21.094v-95.098h18.985zm130.605 80.157c2.578 0 5.083-.41 7.515-1.23 2.432-.821 4.585-1.964 6.46-3.429 1.875-1.464 3.354-3.193 4.438-5.185 1.084-1.992 1.597-4.16 1.538-6.504h19.864c.058 4.57-.982 8.862-3.12 12.876-2.14 4.014-5.04 7.515-8.702 10.503-3.662 2.988-7.895 5.361-12.7 7.119s-9.844 2.637-15.117 2.637c-7.324 0-13.74-1.26-19.248-3.78-5.508-2.52-10.107-5.961-13.799-10.327-3.691-4.365-6.46-9.433-8.306-15.205-1.845-5.771-2.768-11.909-2.768-18.413v-3.164c0-6.504.923-12.656 2.768-18.457 1.846-5.8 4.615-10.87 8.306-15.205 3.692-4.336 8.291-7.778 13.799-10.327 5.508-2.55 11.894-3.823 19.16-3.823 5.742 0 11.06.878 15.952 2.636 4.893 1.758 9.112 4.219 12.656 7.383 3.545 3.164 6.3 6.943 8.262 11.338 1.963 4.395 2.915 9.2 2.857 14.414h-19.864c.059-2.578-.395-5.01-1.362-7.295a17.36 17.36 0 00-4.175-5.976c-1.816-1.7-3.955-3.047-6.416-4.043-2.46-.997-5.156-1.495-8.086-1.495-4.394 0-8.056.894-10.986 2.681-2.93 1.787-5.273 4.13-7.031 7.031-1.758 2.9-3.003 6.197-3.736 9.888a57.665 57.665 0 00-1.098 11.25v3.164c0 3.867.366 7.647 1.098 11.338.733 3.691 1.978 6.987 3.736 9.888 1.758 2.9 4.101 5.244 7.031 7.03 2.93 1.788 6.621 2.682 11.074 2.682zm110.742 16.699c-7.03 0-13.447-1.172-19.248-3.516-5.8-2.344-10.766-5.566-14.897-9.668-4.131-4.101-7.339-8.95-9.624-14.546-2.285-5.595-3.428-11.645-3.428-18.15v-3.603c0-7.558 1.216-14.355 3.648-20.39 2.431-6.035 5.683-11.192 9.755-15.469 4.073-4.277 8.819-7.559 14.239-9.844 5.42-2.285 11.118-3.427 17.094-3.427 6.915 0 13.008 1.157 18.282 3.471 5.273 2.315 9.682 5.567 13.227 9.756 3.545 4.19 6.226 9.155 8.042 14.898 1.817 5.742 2.725 12.04 2.725 18.896v8.877h-65.918c.351 3.691 1.26 7.12 2.724 10.283 1.465 3.164 3.384 5.903 5.757 8.218 2.373 2.314 5.157 4.13 8.35 5.45 3.193 1.318 6.694 1.977 10.503 1.977 5.332 0 10.24-1.055 14.722-3.164 4.482-2.11 8.13-5.01 10.942-8.702l11.426 10.723c-1.524 2.285-3.487 4.497-5.889 6.636-2.402 2.139-5.215 4.043-8.437 5.713-3.223 1.67-6.841 3.017-10.855 4.043-4.014 1.025-8.393 1.538-13.14 1.538zM951.94 127c-2.93 0-5.654.527-8.173 1.582-2.52 1.055-4.776 2.593-6.768 4.614-1.992 2.022-3.677 4.483-5.054 7.383-1.377 2.9-2.358 6.196-2.944 9.888h44.56v-1.582a30.353 30.353 0 00-1.625-8.13 21.498 21.498 0 00-4-6.987c-1.757-2.051-3.97-3.692-6.635-4.922-2.666-1.23-5.786-1.846-9.36-1.846z" id="a"/></defs><g fill="#E11E5A" fill-rule="nonzero"><use xlink:href="#a"/><use xlink:href="#a"/><path d="M108 53c48.601 0 88 39.399 88 88s-39.399 88-88 88-88-39.399-88-88 39.399-88 88-88zm0 20c-37.555 0-68 30.445-68 68s30.445 68 68 68 68-30.445 68-68-30.445-68-68-68z"/><path d="M118.5 9.5h-20v263h20z"/></g></svg>